# xmcd
#
# Track frame offsets:
#	150
#	18121
#	31168
#	43504
#	58143
#	76473
#	90361
#	106154
#	120233
#	131822
#	158055
#	170909
#	187805
#	199783
#	226576
#	241829
#	254086
#	263763
#	277197
#	296705
#
# Disc length: 3988 seconds
#
# Revision: 0
# Processed by: cddbd v1.5.2PL0 Copyright (c) Steve Scherf et al.
# Submitted via: audiograbber 1.83.01
#
DISCID=0b0f9214
DTITLE=Sonny Landreth - Crazy Cajun Recordings
DYEAR=1999
DGENRE=Blues
TTITLE0=I Know You Rider
TTITLE1=Prodigal Son
TTITLE2=Country Blues
TTITLE3=Don't Cry For Me
TTITLE4=M'Sippi Blues
TTITLE5=Lady Come Lately
TTITLE6=She Left Me A Mule
TTITLE7=Forever Lillie Mae
TTITLE8=That's The Way It's Gonna Be
TTITLE9=Sunrise
TTITLE10=Good Enough For Me
TTITLE11=Rise Shining
TTITLE12=Baby Ain't That Love
TTITLE13=Ain't Gonna Worry
TTITLE14=Lazy Boy
TTITLE15=The Only One
TTITLE16=Think It Over (Lazy Boy)
TTITLE17=You're Why I'm So Lonely
TTITLE18=Lookin' For A Good Time
TTITLE19=Lazy Boy (reprise)
EXTD=YEAR: 1999
EXTT0=
EXTT1=
EXTT2=
EXTT3=
EXTT4=
EXTT5=
EXTT6=
EXTT7=
EXTT8=
EXTT9=
EXTT10=
EXTT11=
EXTT12=
EXTT13=
EXTT14=
EXTT15=
EXTT16=
EXTT17=
EXTT18=
EXTT19=
PLAYORDER=
